<svg width="50" height="60" viewBox="0 0 50 60" fill="none" xmlns="http://www.w3.org/2000/svg">
<path d="M15.0696 6H32.3457C39.5017 6 45.3027 11.8011 45.3027 18.9571V18.9571C45.3027 26.113 39.5017 31.9141 32.3457 31.9141H15.0696V6Z" fill="#862626"/>
<path d="M44.2139 46.9496L16.6535 6.91599C16.5631 6.78463 16.5107 6.63085 16.5022 6.47161C16.4482 5.46315 15.0047 5.34856 14.7922 6.33586L10.6718 25.4845C10.5554 26.0251 10.6682 26.5899 10.9832 27.0444L24.2598 46.2017C24.5619 46.6376 25.0248 46.9357 25.5468 47.0304L42.2097 50.0516C43.96 50.3689 45.2226 48.4147 44.2139 46.9496Z" fill="#D93E3E" stroke="#D93E3E"/>
</svg>
